HIERARCHY
ROOT hip
{
  OFFSET 0 0 0
  CHANNELS 6 Xposition Yposition Zposition Zrotation Yrotation Xrotation
  JOINT abdomen
  {
    OFFSET 0 20.6881 -0.73152
    CHANNELS 3 Zrotation Xrotation Yrotation
    JOINT chest
    {
      OFFSET 0 11.7043 -0.48768
      CHANNELS 3 Zrotation Xrotation Yrotation
      JOINT neck
      {
        OFFSET 0 22.1894 -2.19456
        CHANNELS 3 Zrotation Xrotation Yrotation
        JOINT head
        {
          OFFSET -0.24384 7.07133 1.2192
          CHANNELS 3 Zrotation Xrotation Yrotation
          JOINT leftEye
          {
            OFFSET 4.14528 8.04674 8.04672
            CHANNELS 3 Zrotation Xrotation Yrotation
            End Site
            {
              OFFSET 1 0 0
            }
          }
          JOINT rightEye
          {
            OFFSET -3.6576 8.04674 8.04672
            CHANNELS 3 Zrotation Xrotation Yrotation
            End Site
            {
              OFFSET 1 0 0
            }
          }
        }
      }
      JOINT rCollar
      {
        OFFSET -2.68224 19.2634 -4.8768
        CHANNELS 3 Zrotation Xrotation Yrotation
        JOINT rShldr
        {
          OFFSET -8.77824 -1.95073 1.46304
          CHANNELS 3 Zrotation Xrotation Yrotation
          JOINT rForeArm
          {
            OFFSET -28.1742 -1.7115 0.48768
            CHANNELS 3 Zrotation Xrotation Yrotation
            JOINT rHand
            {
              OFFSET -22.5879 0.773209 7.07136
              CHANNELS 3 Zrotation Xrotation Yrotation
              JOINT rThumb1
              {
                OFFSET -1.2192 -0.487915 3.41376
                CHANNELS 3 Zrotation Xrotation Yrotation
                JOINT rThumb2
                {
                  OFFSET -3.37035 -0.52449 3.41376
                  CHANNELS 3 Zrotation Xrotation Yrotation
                  End Site
                  {
                    OFFSET -1.78271 -1.18214 1.43049
                  }
                }
              }
              JOINT rIndex1
              {
                OFFSET -7.75947 0.938293 5.60832
                CHANNELS 3 Zrotation Xrotation Yrotation
                JOINT rIndex2
                {
                  OFFSET -2.54057 -0.884171 1.56538
                  CHANNELS 3 Zrotation Xrotation Yrotation
                  End Site
                  {
                    OFFSET -1.62519 -0.234802 1.16502
                  }
                }
              }
              JOINT rMid1
              {
                OFFSET -8.24714 1.18213 3.41376
                CHANNELS 3 Zrotation Xrotation Yrotation
                JOINT rMid2
                {
                  OFFSET -3.10165 -0.590103 1.0647
                  CHANNELS 3 Zrotation Xrotation Yrotation
                  End Site
                  {
                    OFFSET -2.48547 -0.328903 0.83742
                  }
                }
              }
              JOINT rRing1
              {
                OFFSET -8.82822 0.546677 1.51678
                CHANNELS 3 Zrotation Xrotation Yrotation
                JOINT rRing2
                {
                  OFFSET -2.60934 -0.819778 -0.0198488
                  CHANNELS 3 Zrotation Xrotation Yrotation
                  End Site
                  {
                    OFFSET -2.33842 -0.294052 0.168128
                  }
                }
              }
              JOINT rPinky1
              {
                OFFSET -8.27202 -0.0477905 -0.4584
                CHANNELS 3 Zrotation Xrotation Yrotation
                JOINT rPinky2
                {
                  OFFSET -1.82734 -0.647385 -0.700984
                  CHANNELS 3 Zrotation Xrotation Yrotation
                  End Site
                  {
                    OFFSET -1.69225 -0.51767 -0.607171
                  }
                }
              }
            }
          }
        }
      }
      JOINT lCollar
      {
        OFFSET 2.68224 19.2634 -4.8768
        CHANNELS 3 Zrotation Xrotation Yrotation
        JOINT lShldr
        {
          OFFSET 8.77824 -1.95073 1.46304
          CHANNELS 3 Zrotation Xrotation Yrotation
          JOINT lForeArm
          {
            OFFSET 28.1742 -1.7115 0.48768
            CHANNELS 3 Zrotation Xrotation Yrotation
            JOINT lHand
            {
              OFFSET 22.5879 0.773209 7.07136
              CHANNELS 3 Zrotation Xrotation Yrotation
              JOINT lThumb1
              {
                OFFSET 1.2192 -0.487915 3.41376
                CHANNELS 3 Zrotation Xrotation Yrotation
                JOINT lThumb2
                {
                  OFFSET 3.37035 -0.52449 3.41376
                  CHANNELS 3 Zrotation Xrotation Yrotation
                  End Site
                  {
                    OFFSET 1.78271 -1.18214 1.43049
                  }
                }
              }
              JOINT lIndex1
              {
                OFFSET 7.75947 0.938293 5.60832
                CHANNELS 3 Zrotation Xrotation Yrotation
                JOINT lIndex2
                {
                  OFFSET 2.54057 -0.884171 1.56538
                  CHANNELS 3 Zrotation Xrotation Yrotation
                  End Site
                  {
                    OFFSET 1.62519 -0.234802 1.16502
                  }
                }
              }
              JOINT lMid1
              {
                OFFSET 8.24714 1.18213 3.41376
                CHANNELS 3 Zrotation Xrotation Yrotation
                JOINT lMid2
                {
                  OFFSET 3.10165 -0.590103 1.0647
                  CHANNELS 3 Zrotation Xrotation Yrotation
                  End Site
                  {
                    OFFSET 2.48547 -0.328903 0.83742
                  }
                }
              }
              JOINT lRing1
              {
                OFFSET 8.82822 0.546677 1.51678
                CHANNELS 3 Zrotation Xrotation Yrotation
                JOINT lRing2
                {
                  OFFSET 2.60934 -0.819778 -0.0198488
                  CHANNELS 3 Zrotation Xrotation Yrotation
                  End Site
                  {
                    OFFSET 2.33842 -0.294052 0.168128
                  }
                }
              }
              JOINT lPinky1
              {
                OFFSET 8.27202 -0.0477905 -0.4584
                CHANNELS 3 Zrotation Xrotation Yrotation
                JOINT lPinky2
                {
                  OFFSET 1.82734 -0.647385 -0.700984
                  CHANNELS 3 Zrotation Xrotation Yrotation
                  End Site
                  {
                    OFFSET 1.69225 -0.51767 -0.607171
                  }
                }
              }
            }
          }
        }
      }
    }
  }
  JOINT rButtock
  {
    OFFSET -8.77824 4.35084 1.2192
    CHANNELS 3 Zrotation Xrotation Yrotation
    JOINT rThigh
    {
      OFFSET 0 -1.70687 -2.19456
      CHANNELS 3 Zrotation Xrotation Yrotation
      JOINT rShin
      {
        OFFSET 0 -36.8199 0.73152
        CHANNELS 3 Zrotation Xrotation Yrotation
        JOINT rFoot
        {
          OFFSET 0.73152 -45.1104 -5.12064
          CHANNELS 3 Zrotation Xrotation Yrotation
          End Site
          {
            OFFSET -1.1221 -3.69964 12.103
          }
        }
      }
    }
  }
  JOINT lButtock
  {
    OFFSET 8.77824 4.35084 1.2192
    CHANNELS 3 Zrotation Xrotation Yrotation
    JOINT lThigh
    {
      OFFSET 0 -1.70687 -2.19456
      CHANNELS 3 Zrotation Xrotation Yrotation
      JOINT lShin
      {
        OFFSET 0 -36.8199 0.73152
        CHANNELS 3 Zrotation Xrotation Yrotation
        JOINT lFoot
        {
          OFFSET -0.73152 -45.1104 -5.12064
          CHANNELS 3 Zrotation Xrotation Yrotation
          End Site
          {
            OFFSET 1.1221 -3.69964 12.103
          }
        }
      }
    }
  }
}
MOTION
Frames:	4
Frame Time:	0.03333
-0.44122999906539917 57.158599853515625 1.5127999782562256 -0.8757000043988228 18.33480030298233 13.281400501728058 -4.931689873337746 13.302399516105652 6.70662023127079 1.4446000568568707 -12.995199412107468 2.00929993763566 -8.113129734992981 14.773399382829666 -10.636199936270714 12.589799612760544 -32.24929869174957 -17.57520005106926 0.0 0.0 0.0 0.0 0.0 0.0 0.0 0.0 0.0 20.102200359106064 -14.505700170993805 58.07479798793793 -14.1818006336689 -7.101529911160469 25.921801328659058 -0.27906700037419796 14.86799955368042 2.1382699348032475 -2.0175860981908045e-09 -1.7355716863676207e-08 -2.2740209715266246e-09 -3.510791657390655e-09 -3.002014636876993e-08 -3.905995527020423e-09 -2.0175860981908045e-09 -1.7355716863676207e-08 -2.2740209715266246e-09 7.7309102565050125 5.474880114197731 0.41731400415301323 -2.0175860981908045e-09 -1.7355716863676207e-08 -2.2740209715266246e-09 2.905540131032467 0.9651830233633518 0.102901995414868 -2.0175860981908045e-09 -1.7355716863676207e-08 -2.2740209715266246e-09 10.27859978377819 0.7318009994924068 0.025912300043273717 -2.0175860981908045e-09 -1.7355716863676207e-08 -2.2740209715266246e-09 2.221670038998127 -0.733487019315362 -0.2089200052432716 0.0 0.0 0.0 -116.45600080490112 60.03409802913666 51.39710068702698 28.402600586414337 -36.95900022983551 -78.62710118293762 3.482249937951565 -45.61490178108215 8.259410038590431 -1.6351719978047186e-09 -2.829096956702415e-09 -1.5117507246031892e-09 -2.773461460492399e-09 -4.7552362048008945e-09 -2.6551560949883424e-09 -1.6351719978047186e-09 -2.829096956702415e-09 -1.5117507246031892e-09 -7.7309102565050125 5.474880114197731 -0.41731400415301323 -1.6351719978047186e-09 -2.829096956702415e-09 -1.5117507246031892e-09 -2.905540131032467 0.9651830233633518 -0.102901995414868 -1.6351719978047186e-09 -2.829096956702415e-09 -1.5117507246031892e-09 -10.27859978377819 0.7318009994924068 -0.025912300043273717 -1.6351719978047186e-09 -2.829096956702415e-09 -1.5117507246031892e-09 -2.221670038998127 -0.733487019315362 0.2089200052432716 0.0 0.0 0.0 -34.26149994134903 -57.62630045413971 -47.54609763622284 -2.8109300695359707 75.87310016155243 4.33382011950016 -9.378390088677406 -10.259200036525726 -27.450199127197266 0.0 0.0 0.0 17.4269999563694 -7.92589008808136 0.7156909815967083 1.988219954073429 74.54969823360443 -4.644409865140915 1.0997500363737345 6.281620189547539 -5.51183994859457
-0.8196699917316437 57.45880126953125 3.1484999656677246 -2.122300062328577 17.583300322294235 12.692100405693054 -3.6991699039936066 13.654400557279587 7.32249028980732 1.2054200191050768 -12.81299963593483 2.1865500323474407 -8.067009821534157 14.723900556564331 -10.581999868154526 12.925900518894196 -32.419900596141815 -17.358500361442566 0.0 0.0 0.0 0.0 0.0 0.0 0.0 0.0 0.0 19.619200229644775 -14.288899898529053 57.95629799365997 -14.470899850130081 -7.3414501547813416 26.50490015745163 -0.2678470057435334 14.572200179100037 2.093820031732321 -1.7035972632584162e-09 -1.2776979474438122e-08 -1.2892087397631258e-09 -2.958913114525785e-09 -2.2075141714594793e-08 -2.2075141714594793e-09 -1.7035972632584162e-09 -1.2776979474438122e-08 -1.2892087397631258e-09 7.7309102565050125 5.474880114197731 0.41731400415301323 -1.7035972632584162e-09 -1.2776979474438122e-08 -1.2892087397631258e-09 2.905540131032467 0.9651830233633518 0.102901995414868 -1.7035972632584162e-09 -1.2776979474438122e-08 -1.2892087397631258e-09 10.27859978377819 0.7318009994924068 0.025912300043273717 -1.7035972632584162e-09 -1.2776979474438122e-08 -1.2892087397631258e-09 2.221670038998127 -0.733487019315362 -0.2089200052432716 0.0 0.0 0.0 -116.42200112342834 60.45209884643555 50.75289845466614 28.39279979467392 -37.148999869823456 -78.95060241222382 2.930529937148094 -42.773999869823456 7.470829859375954 -1.2316547781665577e-09 -2.0233414943504613e-09 -4.5275783122633584e-10 -2.1039170405856567e-09 -3.425100203457987e-09 -8.211031854443718e-10 -1.2316547781665577e-09 -2.0233414943504613e-09 -4.5275783122633584e-10 -7.7309102565050125 5.474880114197731 -0.41731400415301323 -1.2316547781665577e-09 -2.0233414943504613e-09 -4.5275783122633584e-10 -2.905540131032467 0.9651830233633518 -0.102901995414868 -1.2316547781665577e-09 -2.0233414943504613e-09 -4.5275783122633584e-10 -10.27859978377819 0.7318009994924068 -0.025912300043273717 -1.2316547781665577e-09 -2.0233414943504613e-09 -4.5275783122633584e-10 -2.221670038998127 -0.733487019315362 0.2089200052432716 0.0 0.0 0.0 -28.292098939418793 -57.08650052547455 -42.514099180698395 -2.605040017515421 75.06790101528168 4.135159961879253 -9.821059852838516 -10.772999972105026 -28.300301134586334 0.0 0.0 0.0 17.13519975543022 -14.001400619745255 2.2260200791060925 5.685420110821724 82.80659973621368 -8.126599788665771 0.8722999691963196 3.6482099443674088 -4.466159977018833
-1.1062699854373932 57.75979995727539 4.861599922180176 -3.277500160038471 16.883499920368195 12.065500169992447 -2.444799989461899 14.162499457597733 7.843200266361237 0.86117098107934 -12.729699611663818 2.3153899423778057 -8.011290282011032 14.751300662755966 -10.549700036644936 13.229899406433105 -32.721498906612396 -17.19269961118698 0.0 0.0 0.0 0.0 0.0 0.0 0.0 0.0 0.0 18.900800049304962 -14.036899656057358 57.691102623939514 -14.843399673700333 -7.655719891190529 27.26670116186142 -0.25677799014374614 14.2706997692585 2.0486499555408955 7.622702469234355e-10 8.730296485737199e-09 1.6984813555609435e-09 1.3314149782672757e-09 1.5130297015275573e-08 2.928857156803133e-09 7.622702469234355e-10 8.730296485737199e-09 1.6984813555609435e-09 7.7309102565050125 5.474880114197731 0.41731400415301323 7.622702469234355e-10 8.730296485737199e-09 1.6984813555609435e-09 2.905540131032467 0.9651830233633518 0.102901995414868 7.622702469234355e-10 8.730296485737199e-09 1.6984813555609435e-09 10.27859978377819 0.7318009994924068 0.025912300043273717 7.622702469234355e-10 8.730296485737199e-09 1.6984813555609435e-09 2.221670038998127 -0.733487019315362 -0.2089200052432716 0.0 0.0 0.0 -116.11799955368042 61.032899022102356 49.737698435783386 28.377500474452972 -37.385500967502594 -79.35919940471649 2.330990005284548 -39.00079965591431 6.54218003153801 1.1862510973514873e-09 2.6142288334085606e-09 2.545164079492679e-09 1.9830537212328636e-09 4.353637450549286e-09 4.417586296767695e-09 1.1862510973514873e-09 2.6142288334085606e-09 2.545164079492679e-09 -7.7309102565050125 5.474880114197731 -0.41731400415301323 1.1862510973514873e-09 2.6142288334085606e-09 2.545164079492679e-09 -2.905540131032467 0.9651830233633518 -0.102901995414868 1.1862510973514873e-09 2.6142288334085606e-09 2.545164079492679e-09 -10.27859978377819 0.7318009994924068 -0.025912300043273717 1.1862510973514873e-09 2.6142288334085606e-09 2.545164079492679e-09 -2.221670038998127 -0.733487019315362 0.2089200052432716 0.0 0.0 0.0 -22.66489952802658 -56.00830078125 -37.76160031557083 -2.3923700116574764 74.19199883937836 3.956350162625313 -10.308299884200096 -11.3789002597332 -29.15299952030182 0.0 0.0 0.0 16.63129985332489 -20.512799620628357 4.017070010304451 112.25200295448303 89.0515011548996 -114.4029951095581 0.5342050082981586 1.7107400670647621 -0.6079919915646315
-1.2944699823856354 58.01060104370117 6.630399942398071 -4.210899844765663 16.131299883127213 11.41730010509491 -1.3431699760258198 14.706999957561493 8.37706983089447 0.543911000713706 -12.62639969587326 2.4500700272619724 -7.981209978461266 14.784899353981018 -10.500199869275093 13.372500389814377 -32.95029938220978 -17.041600048542023 0.0 0.0 0.0 0.0 0.0 0.0 0.0 0.0 0.0 17.97650009393692 -13.78990039229393 57.416401505470276 -15.219099372625351 -7.981340065598488 28.041298985481262 -0.2360960002988577 13.693399876356125 1.9624400697648525 1.7694645748633775e-09 1.5746763892821036e-08 2.4147084332071245e-09 3.0804159223407623e-09 2.724988235058845e-08 4.15411705034785e-09 1.7694645748633775e-09 1.5746763892821036e-08 2.4147084332071245e-09 7.7309102565050125 5.474880114197731 0.41731400415301323 1.7694645748633775e-09 1.5746763892821036e-08 2.4147084332071245e-09 2.905540131032467 0.9651830233633518 0.102901995414868 1.7694645748633775e-09 1.5746763892821036e-08 2.4147084332071245e-09 10.27859978377819 0.7318009994924068 0.025912300043273717 1.7694645748633775e-09 1.5746763892821036e-08 2.4147084332071245e-09 2.221670038998127 -0.733487019315362 -0.2089200052432716 0.0 0.0 0.0 -115.55699944496155 61.93989872932434 48.16349923610687 28.351000249385834 -37.78149962425232 -80.02919912338257 1.65608000010252 -33.83050113916397 5.403950102627277 1.8884094288296183e-09 4.276898835087195e-09 3.3867308957269415e-09 3.1744207262818236e-09 7.167386684159283e-09 5.890967713639839e-09 1.8884094288296183e-09 4.276898835087195e-09 3.3867308957269415e-09 -7.7309102565050125 5.474880114197731 -0.41731400415301323 1.8884094288296183e-09 4.276898835087195e-09 3.3867308957269415e-09 -2.905540131032467 0.9651830233633518 -0.102901995414868 1.8884094288296183e-09 4.276898835087195e-09 3.3867308957269415e-09 -10.27859978377819 0.7318009994924068 -0.025912300043273717 1.8884094288296183e-09 4.276898835087195e-09 3.3867308957269415e-09 -2.221670038998127 -0.733487019315362 0.2089200052432716 0.0 0.0 0.0 -17.934700548648834 -54.58660125732422 -33.68189871311188 -2.237870078533888 73.4677004814148 3.815769888460636 -10.770199745893478 -12.065300345420837 -29.815000891685486 0.0 0.0 0.0 15.487100332975388 -27.427700757980347 5.555520057678223 170.84099650382996 83.53339791297913 -172.64399886131287 0.5334930075332522 -0.5018110061064363 3.1184498593211174
